# xmcd
#
# Track frame offsets:
#	150
#	19358
#	41954
#	64231
#	90628
#	107979
#	131102
#	155301
#	173850
#	194040
#	216256
#	242352
#	259848
#	282015
#
# Disc length: 4016 seconds
#
# Revision: 131025
# Processed by: cddbd v1.5.2PL0 Copyright (c) Steve Scherf et al.
# Submitted via: EZCDAudioConverter 8.0.2.1
#
DISCID=d30fae0e
DTITLE=Mỹ Linh - Made in Vietnam
DYEAR=2003
DGENRE=
TTITLE0=Mỹ Linh - Em mơ về anh
TTITLE1=Mỹ Linh - Tình yêu thức dậy
TTITLE2=Mỹ Linh - Trở lại tuổi thơ
TTITLE3=Mỹ Linh - Có thấy tôi tuổi 15
TTITLE4=Mỹ Linh - Quán cà phê mùa hè
TTITLE5=Mỹ Linh - Chờ đợi
TTITLE6=Mỹ Linh - Hát theo người đi trên phố
TTITLE7=Mỹ Linh - Rồi anh lại đến
TTITLE8=Mỹ Linh - Và tôi vẫn hát
TTITLE9=Mỹ Linh - Hát cho anh
TTITLE10=Mỹ Linh - Bướm trắng
TTITLE11=Soundtrack - Quán cà phê mùa hè
TTITLE12=Soundtrack - Trở lại tuổi thơ
TTITLE13=Soundtrack - Em mơ về anh
EXTD=
EXTT0=
EXTT1=
EXTT2=
EXTT3=
EXTT4=
EXTT5=
EXTT6=
EXTT7=
EXTT8=
EXTT9=
EXTT10=
EXTT11=
EXTT12=
EXTT13=
PLAYORDER=
